<svg width="32" height="32" viewBox="0 0 32 32" fill="none" xmlns="http://www.w3.org/2000/svg">
<path fill-rule="evenodd" clip-rule="evenodd" d="M5.7042 16.541L14.6341 18.8187C14.7466 21.4885 14.4491 23.2364 13.7402 24.0604L16.5036 25.7393L19.267 24.0604C18.5611 23.2364 18.2621 21.4885 18.3731 18.8187L27.303 16.541L27.2336 19.5543H28.8519L20.9346 21.6924L20.799 32L30.3438 27.3309C25.8018 24.5049 26.799 21.8583 30.4533 21.0285C30.9742 18.9953 31.1221 16.2624 30.9002 12.8259C24.5303 5.05804 8.4707 5.05804 2.1008 12.8259C1.87732 16.2615 2.02528 18.9953 2.54622 21.0285C6.20201 21.8583 7.19919 24.5049 2.65719 27.3309L12.2005 32L12.0679 21.6924L4.1491 19.5543H5.76893L5.69957 16.541H5.7042Z" fill="black"/>
<path fill-rule="evenodd" clip-rule="evenodd" d="M13 0L14.3832 6H19.6149L21 0C16.9095 0 17.0885 0 13 0Z" fill="black"/>
</svg>
