<svg width="224" height="50" viewBox="0 0 224 50" fill="none" xmlns="http://www.w3.org/2000/svg">
<path d="M20.208 29.6707C22.384 30.1507 24.08 31.1107 25.296 32.5507C26.512 33.9907 27.12 35.7507 27.12 37.8307C27.12 41.0307 25.872 43.5427 23.376 45.3667C20.912 47.1587 17.504 48.0547 13.152 48.0547H2.112C1.472 48.0547 0.96 47.9107 0.576 47.6227C0.192 47.3027 0 46.8227 0 46.1827V44.3107C0 43.6707 0.192 43.2067 0.576 42.9187C0.96 42.5987 1.472 42.4387 2.112 42.4387H2.976V20.0707H2.112C1.472 20.0707 0.96 19.9267 0.576 19.6387C0.192 19.3187 0 18.8387 0 18.1987V16.3267C0 15.6867 0.192 15.2227 0.576 14.9347C0.96 14.6147 1.456 14.4547 2.064 14.4547H13.248C17.408 14.4547 20.496 15.1107 22.512 16.4227C24.528 17.7027 25.536 19.6707 25.536 22.3267C25.536 24.0227 25.072 25.4947 24.144 26.7427C23.248 27.9907 21.936 28.9667 20.208 29.6707ZM9.696 20.0707V27.9907H12.528C14.608 27.9907 16.144 27.6547 17.136 26.9827C18.16 26.2787 18.672 25.2067 18.672 23.7667C18.672 22.4227 18.224 21.4787 17.328 20.9347C16.432 20.3587 14.912 20.0707 12.768 20.0707H9.696ZM12.576 42.4387C15.328 42.4387 17.28 42.0707 18.432 41.3347C19.616 40.5987 20.208 39.3827 20.208 37.6867C20.208 36.2787 19.696 35.2547 18.672 34.6147C17.68 33.9427 16.096 33.6067 13.92 33.6067H9.696V42.4387H12.576Z" fill="white"/>
<path d="M60.3323 42.4387C61.7403 42.4387 62.4443 43.0627 62.4443 44.3107V46.1827C62.4443 46.8227 62.2523 47.3027 61.8683 47.6227C61.4843 47.9107 60.9723 48.0547 60.3323 48.0547H54.8602C54.5082 48.0547 54.1723 47.9747 53.8523 47.8147C53.5643 47.6227 53.3403 47.3667 53.1803 47.0467L48.4762 38.7427C47.8042 37.5907 47.2442 36.7587 46.7962 36.2467C46.3802 35.7027 45.9002 35.3507 45.3563 35.1907C44.8442 34.9987 44.1243 34.9027 43.1963 34.9027H41.8522V42.4387H42.7163C44.0923 42.4387 44.7803 43.0627 44.7803 44.3107V46.1827C44.7803 47.4307 44.0923 48.0547 42.7163 48.0547H34.2682C33.6283 48.0547 33.1162 47.9107 32.7323 47.6227C32.3483 47.3027 32.1562 46.8227 32.1562 46.1827V44.3107C32.1562 43.6707 32.3483 43.2067 32.7323 42.9187C33.1162 42.5987 33.6283 42.4387 34.2682 42.4387H35.1323V20.0707H34.2682C33.6283 20.0707 33.1162 19.9267 32.7323 19.6387C32.3483 19.3187 32.1562 18.8387 32.1562 18.1987V16.3267C32.1562 15.6867 32.3483 15.2227 32.7323 14.9347C33.1162 14.6147 33.6122 14.4547 34.2202 14.4547H45.9803C50.1083 14.4547 53.2282 15.2707 55.3402 16.9027C57.4522 18.5347 58.5083 20.9507 58.5083 24.1507C58.5083 26.3587 57.9163 28.2467 56.7323 29.8147C55.5482 31.3507 53.9002 32.4707 51.7882 33.1747C52.3643 33.4307 52.8763 33.8307 53.3243 34.3747C53.8043 34.8867 54.3003 35.5907 54.8123 36.4867L58.1243 42.4387H60.3323ZM45.4043 29.2867C47.5803 29.2867 49.1642 28.8867 50.1562 28.0867C51.1483 27.2547 51.6442 25.9747 51.6442 24.2467C51.6442 22.8387 51.1642 21.7987 50.2043 21.1267C49.2443 20.4227 47.7562 20.0707 45.7402 20.0707H41.8522V29.2867H45.4043Z" fill="white"/>
<path d="M96.6004 42.4387C97.9764 42.4387 98.6644 43.0627 98.6644 44.3107V46.1827C98.6644 47.4307 97.9764 48.0547 96.6004 48.0547H87.9124C87.3044 48.0547 86.8084 47.9107 86.4244 47.6227C86.0404 47.3027 85.8484 46.8227 85.8484 46.1827V44.3107C85.8484 43.6707 86.0404 43.2067 86.4244 42.9187C86.8084 42.5987 87.3044 42.4387 87.9124 42.4387H88.8244L87.0964 37.5907H76.5844L74.8564 42.4387H75.7204C76.3604 42.4387 76.8724 42.5987 77.2564 42.9187C77.6404 43.2067 77.8324 43.6707 77.8324 44.3107V46.1827C77.8324 46.8227 77.6404 47.3027 77.2564 47.6227C76.8724 47.9107 76.3604 48.0547 75.7204 48.0547H68.0884C67.4804 48.0547 66.9844 47.9107 66.6004 47.6227C66.2164 47.3027 66.0244 46.8227 66.0244 46.1827V44.3107C66.0244 43.6707 66.2164 43.2067 66.6004 42.9187C66.9844 42.5987 67.4804 42.4387 68.0884 42.4387H69.0004L78.6484 15.9427C78.8084 15.4627 79.0804 15.0947 79.4644 14.8387C79.8484 14.5827 80.2804 14.4547 80.7604 14.4547H83.8804C84.3604 14.4547 84.7924 14.5827 85.1764 14.8387C85.5604 15.0947 85.8324 15.4627 85.9924 15.9427L95.7364 42.4387H96.6004ZM85.0804 31.9267L81.8164 22.7107L78.5524 31.9267H85.0804Z" fill="white"/>
<path d="M126.678 14.4547C127.286 14.4547 127.782 14.6147 128.166 14.9347C128.55 15.2227 128.742 15.6867 128.742 16.3267V18.1987C128.742 18.8387 128.55 19.3187 128.166 19.6387C127.782 19.9267 127.286 20.0707 126.678 20.0707H125.766L116.454 46.5667C116.294 47.0147 116.022 47.3827 115.638 47.6707C115.254 47.9267 114.806 48.0547 114.294 48.0547H111.222C110.71 48.0547 110.262 47.9267 109.878 47.6707C109.526 47.3827 109.27 47.0147 109.11 46.5667L99.7504 20.0707H98.8864C98.2464 20.0707 97.7344 19.9267 97.3504 19.6387C96.9664 19.3187 96.7744 18.8387 96.7744 18.1987V16.3267C96.7744 15.6867 96.9664 15.2227 97.3504 14.9347C97.7344 14.6147 98.2464 14.4547 98.8864 14.4547H107.574C108.182 14.4547 108.678 14.6147 109.062 14.9347C109.446 15.2227 109.638 15.6867 109.638 16.3267V18.1987C109.638 18.8387 109.446 19.3187 109.062 19.6387C108.678 19.9267 108.182 20.0707 107.574 20.0707H106.662L113.286 39.4147L119.91 20.0707H118.998C118.39 20.0707 117.894 19.9267 117.51 19.6387C117.126 19.3187 116.934 18.8387 116.934 18.1987V16.3267C116.934 15.6867 117.126 15.2227 117.51 14.9347C117.894 14.6147 118.39 14.4547 118.998 14.4547H126.678Z" fill="white"/>
<path d="M156.984 37.1107C157.656 37.1107 158.136 37.3027 158.424 37.6867C158.744 38.0707 158.904 38.5667 158.904 39.1747V45.5587C158.904 46.2627 158.648 46.8547 158.136 47.3347C157.656 47.8147 157.048 48.0547 156.312 48.0547H135.096C134.456 48.0547 133.944 47.9107 133.56 47.6227C133.176 47.3027 132.984 46.8227 132.984 46.1827V44.3107C132.984 43.6707 133.176 43.2067 133.56 42.9187C133.944 42.5987 134.456 42.4387 135.096 42.4387H135.96V20.0707H135.096C134.456 20.0707 133.944 19.9267 133.56 19.6387C133.176 19.3187 132.984 18.8387 132.984 18.1987V16.3267C132.984 15.6867 133.176 15.2227 133.56 14.9347C133.944 14.6147 134.44 14.4547 135.048 14.4547H156.024C156.76 14.4547 157.368 14.6947 157.848 15.1747C158.36 15.6547 158.616 16.2627 158.616 16.9987V22.4707C158.616 23.1107 158.456 23.6227 158.136 24.0067C157.848 24.3907 157.384 24.5827 156.744 24.5827H154.872C154.232 24.5827 153.752 24.3907 153.432 24.0067C153.144 23.6227 153 23.1107 153 22.4707V20.0707H142.68V27.8467H150.696C151.304 27.8467 151.8 28.0547 152.184 28.4707C152.6 28.8547 152.808 29.3347 152.808 29.9107V31.3987C152.808 32.0067 152.6 32.5027 152.184 32.8867C151.8 33.2707 151.304 33.4627 150.696 33.4627H142.68V42.4387H153.24V39.1747C153.24 38.5667 153.384 38.0707 153.672 37.6867C153.992 37.3027 154.488 37.1107 155.16 37.1107H156.984Z" fill="white"/>
<path fill-rule="evenodd" clip-rule="evenodd" d="M183.284 25.1051L197.448 28.7223C197.627 32.9622 197.155 35.738 196.03 37.0465L200.414 39.7128L204.797 37.0465C203.677 35.738 203.203 32.9622 203.379 28.7223L217.544 25.1051L217.434 29.8906H220.001L207.442 33.2859L207.227 49.6553L222.367 42.2404C215.163 37.7524 216.744 33.5494 222.541 32.2317C223.367 29.0028 223.602 24.6627 223.25 19.2052C213.146 6.86925 187.672 6.86925 177.568 19.2052C177.213 24.6612 177.448 29.0028 178.274 32.2317C184.073 33.5494 185.655 37.7524 178.45 42.2404L193.588 49.6553L193.378 33.2859L180.817 29.8906H183.386L183.276 25.1051H183.284Z" fill="white"/>
<path fill-rule="evenodd" clip-rule="evenodd" d="M195.446 0L197.165 8.95145H203.665L205.386 0C200.304 0 200.526 0 195.446 0Z" fill="white"/>
</svg>
